# File created by Blade
# Date/Time:  Thu Jan 22 19:09:08 2015
#---------------------------------------------------------
:version 1.10
:name HOM
:units
  mass 1.0
  length 1.000000
  angle deg
:documentation
     Acclaim Skeleton File
:root
   axis xyz
   order TX TY TZ RX RY RZ
   position 0.000000 0.000000 0.000000
   orientation 0 0 0
:bonedata
   begin
      id 1
      name RightUpLeg_dum
      direction -1.000000 0.000000 0.000000
      length 4.478084
      axis 0.0 0.0 0.0 xyz
   end
   begin
      id 2
      name LeftUpLeg_dum
      direction 1.000000 0.000000 0.000000
      length 4.478084
      axis 0.0 0.0 0.0 xyz
   end
   begin
      id 3
      name Spine_dum
      direction 0.000000 1.000000 0.000000
      length 6.068208
      axis 0.0 0.0 0.0 xyz
   end
   begin
      id 4
      name RightUpLeg
      direction 0.000000 -1.000000 0.000000
      length 16.405774
      axis 0.0 0.0 0.0 xyz
      dof rx ry rz
   end
   begin
      id 5
      name RightLeg
      direction 0.000000 -1.000000 0.000000
      length 14.644143
      axis 0.0 0.0 0.0 xyz
      dof rx ry rz
   end
   begin
      id 6
      name RightFoot
      direction 0.000000 -0.258819 0.965926
      length 5.806150
      axis 15.0 0.0 0.0 xyz
      dof rx ry rz
   end
   begin
      id 7
      name RightToeBase
      direction 0.000000 0.000000 1.000000
      length 2.952750
      axis 0.0 0.0 0.0 xyz
      dof rx ry rz
   end
   begin
      id 8
      name LeftUpLeg
      direction 0.000000 -1.000000 0.000000
      length 16.405774
      axis 0.0 0.0 0.0 xyz
      dof rx ry rz
   end
   begin
      id 9
      name LeftLeg
      direction 0.000000 -1.000000 0.000000
      length 14.644143
      axis 0.0 0.0 0.0 xyz
      dof rx ry rz
   end
   begin
      id 10
      name LeftFoot
      direction 0.000000 -0.258819 0.965926
      length 5.806150
      axis 15.0 0.0 0.0 xyz
      dof rx ry rz
   end
   begin
      id 11
      name LeftToeBase
      direction 0.000000 0.000000 1.000000
      length 2.952750
      axis 0.0 0.0 0.0 xyz
      dof rx ry rz
   end
   begin
      id 12
      name Spine
      direction 0.000000 1.000000 0.000000
      length 0.000000
      axis 0.0 0.0 0.0 xyz
      dof rx ry rz
   end
   begin
      id 13
      name Spine_dum1
      direction 0.000000 1.000000 0.000000
      length 10.013923
      axis 0.0 0.0 0.0 xyz
   end
   begin
      id 14
      name Spine_dum2
      direction 0.000000 1.000000 0.000000
      length 10.013923
      axis 0.0 0.0 0.0 xyz
   end
   begin
      id 15
      name Spine_dum3
      direction 0.000000 1.000000 0.000000
      length 15.777476
      axis 0.0 0.0 0.0 xyz
   end
   begin
      id 16
      name RightShoulder
      direction -1.000000 0.000000 0.000000
      length 7.190220
      axis 0.0 0.0 90.0 xyz
      dof rx ry rz
   end
   begin
      id 17
      name RightArm
      direction -1.000000 0.000000 0.000000
      length 10.177469
      axis 0.0 0.0 90.0 xyz
      dof rx ry rz
   end
   begin
      id 18
      name RightForeArm
      direction -1.000000 0.000000 0.000000
      length 8.392114
      axis 0.0 0.0 90.0 xyz
      dof ry rz rx
   end
   begin
      id 19
      name RightHand
      direction -1.000000 0.000000 0.000000
      length 0.000000
      axis 0.0 0.0 90.0 xyz
      dof rx ry rz
   end
   begin
      id 20
      name RightHand_dum1
      direction -1.000000 0.000000 0.000000
      length 3.937000
      axis 0.0 0.0 90.0 xyz
   end
   begin
      id 21
      name RightHand_dum2
      direction 0.000000 0.000000 0.000000
      length 0.000000
      axis 0.0 0.0 90.0 xyz
   end
   begin
      id 22
      name RightHandThumb1
      direction 0.000000 0.000000 1.000000
      length 3.937000
      axis 0.0 0.0 90.0 xyz
      dof rx rz ry
   end
   begin
      id 23
      name LeftShoulder
      direction 1.000000 0.000000 0.000000
      length 7.190220
      axis 0.0 0.0 -90.0 xyz
      dof rx ry rz
   end
   begin
      id 24
      name LeftArm
      direction 1.000000 0.000000 0.000000
      length 10.177469
      axis 0.0 0.0 -90.0 xyz
      dof rx ry rz
   end
   begin
      id 25
      name LeftForeArm
      direction 1.000000 0.000000 0.000000
      length 8.392114
      axis 0.0 0.0 -90.0 xyz
      dof ry rz rx
   end
   begin
      id 26
      name LeftHand
      direction 1.000000 0.000000 0.000000
      length 0.000000
      axis 0.0 0.0 -90.0 xyz
      dof rx ry rz
   end
   begin
      id 27
      name LeftHand_dum1
      direction 1.000000 0.000000 0.000000
      length 3.937000
      axis 0.0 0.0 -90.0 xyz
   end
   begin
      id 28
      name LeftHand_dum2
      direction 0.000000 0.000000 0.000000
      length 0.000000
      axis 0.0 0.0 -90.0 xyz
   end
   begin
      id 29
      name LeftHandThumb1
      direction 0.000000 0.000000 1.000000
      length 3.937000
      axis 0.0 0.0 -90.0 xyz
      dof rx rz ry
   end
   begin
      id 30
      name Head
      direction 0.000000 1.000000 0.000000
      length 4.527550
      axis 0.0 0.0 0.0 xyz
      dof rx ry rz
   end
:hierarchy
   begin
      root RightUpLeg_dum LeftUpLeg_dum Spine_dum
      RightUpLeg_dum RightUpLeg
      LeftUpLeg_dum LeftUpLeg
      Spine_dum Spine
      RightUpLeg RightLeg
      RightLeg RightFoot
      RightFoot RightToeBase
      LeftUpLeg LeftLeg
      LeftLeg LeftFoot
      LeftFoot LeftToeBase
      Spine Spine_dum1 Spine_dum2 Spine_dum3
      Spine_dum1 RightShoulder
      Spine_dum2 LeftShoulder
      Spine_dum3 Head
      RightShoulder RightArm
      RightArm RightForeArm
      RightForeArm RightHand
      RightHand RightHand_dum1 RightHand_dum2
      RightHand_dum2 RightHandThumb1
      LeftShoulder LeftArm
      LeftArm LeftForeArm
      LeftForeArm LeftHand
      LeftHand LeftHand_dum1 LeftHand_dum2
      LeftHand_dum2 LeftHandThumb1
   end

# File created by Blade
# Date/Time:  Thu Jan 22 19:08:58 2015
# Frame Rate: 120.000 fps
#------------------------------------------------------
:FULLY-SPECIFIED
:DEGREES
572
root -0.187288 33.106299 1.382878 9.908055 8.878743 3.944986
RightUpLeg -4.409352 -7.742094 -5.998557
RightLeg 13.709278 -0.000000 -0.000000
RightFoot -17.302450 -12.714108 1.428795
RightToeBase -4.326914 -0.000000 0.000000
LeftUpLeg -6.641744 -6.318904 -1.286216
LeftLeg 11.451227 -0.000000 -0.000000
LeftFoot -15.270872 4.975200 -9.426794
LeftToeBase 3.466184 -0.000000 -0.000000
Spine -9.815410 10.078739 -5.013915
RightShoulder -11.524501 -5.760170 -29.207996
RightArm 40.113763 18.587180 42.413134
RightForeArm -14.708410 -0.000000 8.967501
RightHand 10.106722 -0.000000 6.874061
RightHandThumb1 -24.326973 -0.000000 -32.862282
LeftShoulder -24.635751 10.596842 30.847508
LeftArm 10.342530 -30.292748 -34.023295
LeftForeArm 11.277255 -0.000000 -0.131968
LeftHand -6.847706 -0.000000 -3.361708
LeftHandThumb1 -26.253704 0.000000 33.147579
Head -4.746956 -16.522778 2.408401
573
root -0.204840 33.103059 1.402840 9.808466 7.992902 3.937589
RightUpLeg -4.502790 -7.885577 -6.024471
RightLeg 13.679338 -0.000000 -0.000000
RightFoot -17.372822 -12.421095 1.536065
RightToeBase -4.176989 -0.000000 0.000000
LeftUpLeg -6.404434 -6.115157 -1.314444
LeftLeg 11.437182 -0.000000 -0.000000
LeftFoot -15.380240 5.145490 -9.559057
LeftToeBase 3.462456 -0.000000 -0.000000
Spine -9.817052 9.803456 -5.051425
RightShoulder -11.692948 -5.975853 -29.091765
RightArm 39.780906 18.673392 42.241121
RightForeArm -14.739104 -0.000000 8.975507
RightHand 10.270828 0.000000 6.888229
RightHandThumb1 -24.326973 -0.000000 -32.862282
LeftShoulder -24.638518 10.581461 30.903486
LeftArm 10.674149 -30.185340 -34.115365
LeftForeArm 11.408859 -0.000000 -0.222573
LeftHand -6.767956 -0.000000 -3.399224
LeftHandThumb1 -26.253704 0.000000 33.147579
Head -4.724597 -15.911024 2.503815
574
root -0.229017 33.100478 1.418756 9.746063 7.128738 3.888071
RightUpLeg -4.587256 -7.890981 -5.991206
RightLeg 13.526725 -0.000000 -0.000000
RightFoot -17.365694 -12.132894 1.702687
RightToeBase -4.107271 -0.000000 0.000000
LeftUpLeg -6.231652 -5.897559 -1.283163
LeftLeg 11.462771 -0.000000 -0.000000
LeftFoot -15.487630 5.251019 -9.741620
LeftToeBase 3.266427 -0.000000 -0.000000
Spine -9.861966 9.486247 -5.031004
RightShoulder -11.835707 -6.237722 -28.936235
RightArm 39.517988 18.685226 41.923839
RightForeArm -14.627052 -0.000000 8.921128
RightHand 10.306548 0.000000 6.865928
RightHandThumb1 -24.326973 -0.000000 -32.862282
LeftShoulder -24.568115 10.455296 30.971848
LeftArm 10.717202 -29.974659 -34.019706
LeftForeArm 11.647790 -0.000000 -0.232392
LeftHand -6.836182 -0.000000 -3.525927
LeftHandThumb1 -26.253704 0.000000 33.147579
Head -4.679028 -15.245679 2.550476
575
root -0.251991 33.097544 1.433877 9.667459 6.284379 3.845177
RightUpLeg -4.622285 -7.923684 -5.966756
RightLeg 13.320154 -0.000000 -0.000000
RightFoot -17.344246 -11.835265 1.770171
RightToeBase -3.956968 -0.000000 0.000000
LeftUpLeg -6.045567 -5.751936 -1.244804
LeftLeg 11.487135 -0.000000 -0.000000
LeftFoot -15.554232 5.320473 -9.921121
LeftToeBase 2.945893 -0.000000 -0.000000
Spine -9.867514 9.162311 -5.000604
RightShoulder -11.983273 -6.457189 -28.828843
RightArm 39.209373 18.730796 41.682506
RightForeArm -14.595029 -0.000000 8.932986
RightHand 10.343613 -0.000000 6.770540
RightHandThumb1 -24.326973 -0.000000 -32.862282
LeftShoulder -24.561315 10.429068 31.000854
LeftArm 10.891145 -29.854967 -34.023209
LeftForeArm 11.764048 -0.000000 -0.259805
LeftHand -6.610557 -0.000000 -3.965577
LeftHandThumb1 -26.253704 0.000000 33.147579
Head -4.675026 -14.642590 2.582770
576
root -0.281254 33.096000 1.443608 9.616634 5.456670 3.791556
RightUpLeg -4.683805 -7.897201 -5.910651
RightLeg 13.098744 -0.000000 -0.000000
RightFoot -17.269424 -11.579367 1.947752
RightToeBase -3.979742 -0.000000 0.000000
LeftUpLeg -5.900152 -5.546437 -1.188753
LeftLeg 11.505885 -0.000000 -0.000000
LeftFoot -15.624900 5.391663 -10.047095
LeftToeBase 2.759477 -0.000000 -0.000000
Spine -9.901852 8.793459 -4.956901
RightShoulder -12.101328 -6.535331 -28.746087
RightArm 38.839675 18.658505 41.433328
RightForeArm -14.294924 -0.000000 8.995640
RightHand 10.054016 0.000000 6.670127
RightHandThumb1 -24.326973 -0.000000 -32.862282
LeftShoulder -24.596695 10.426523 31.028605
LeftArm 11.090907 -29.841195 -34.063144
LeftForeArm 12.123518 -0.000000 -0.275287
LeftHand -6.497508 -0.000000 -4.125020
LeftHandThumb1 -26.253704 0.000000 33.147579
Head -4.643905 -14.006800 2.635079
577
root -0.308866 33.095243 1.453365 9.575999 4.619663 3.740007
RightUpLeg -4.760606 -7.819934 -5.853926
RightLeg 12.888815 -0.000000 -0.000000
RightFoot -17.288701 -11.293706 2.221130
RightToeBase -3.603843 -0.000000 0.000000
LeftUpLeg -5.767129 -5.327057 -1.143782
LeftLeg 11.546659 -0.000000 -0.000000
LeftFoot -15.710353 5.487903 -10.163385
LeftToeBase 2.648846 -0.000000 -0.000000
Spine -9.932820 8.495375 -4.933431
RightShoulder -12.327923 -6.906399 -28.584613
RightArm 38.745683 18.942843 41.361541
RightForeArm -14.098203 0.000000 8.944625
RightHand 10.258399 -0.000000 7.001961
RightHandThumb1 -24.326973 -0.000000 -32.862282
LeftShoulder -24.611013 10.425440 31.025451
LeftArm 11.341187 -29.703610 -34.123229
LeftForeArm 11.867371 -0.000000 -0.215426
LeftHand -6.809355 -0.000000 -3.877930
LeftHandThumb1 -26.253704 0.000000 33.147579
Head -4.696462 -13.395233 2.726477
